<svg width="1121" height="1059" viewBox="0 0 1121 1059" fill="none" xmlns="http://www.w3.org/2000/svg">
<g clip-path="url(#clip0_62_4)">
<path fill-rule="evenodd" clip-rule="evenodd" d="M359.139 860.351C303.813 877.356 249.314 899.356 203.524 921.566C186.498 759.36 169.471 597.161 152.443 434.962C234.564 402.656 299.598 377.074 381.721 344.772C461.673 313.318 541.088 339.687 570.538 409.511C583.491 329.859 631.937 272.742 725.966 235.927C802.872 204.835 879.782 173.742 956.689 142.65C962.595 197.158 968.497 251.666 974.395 306.17C846.905 349.703 837.782 361.004 729.98 404.27C734.464 449.309 738.945 494.355 743.426 539.398C824.468 509.245 906.696 468.971 986.028 442.011C988.54 469.086 991.048 496.167 993.554 523.242C995.998 567.681 946.894 629.148 886.431 652.931C855.357 665.154 833.869 673.607 802.798 685.83C699.609 726.423 612.569 680.902 584.264 590.539C561.911 643.081 527.093 680.089 467.342 703.801C427.898 719.316 388.46 734.831 349.016 750.349C352.389 787.012 355.762 823.685 359.139 860.351ZM1034.74 60.7898C1058.33 43.6098 1072.56 24.2936 1064.91 0L196.936 341.435C183.66 361.393 172.592 381.977 163.555 403.489C453.948 289.254 744.347 175.027 1034.74 60.7898ZM55.1096 1059C54.0295 1037.61 65.0855 1020.59 91.6904 1009.19L962.878 666.497L963.486 664.861C957.564 680.675 951.793 694.098 943.47 709.549L55.1096 1059ZM598.313 156.35C560.186 152.45 521.137 154.956 483.087 161.375C381.103 178.578 290.139 229.046 226.423 302.638L598.313 156.35ZM505.493 925.474L904.954 768.336C840.875 849.347 746.046 903.911 637.91 922.137C593.948 929.556 549.476 930.702 505.493 925.474ZM267.506 502.547L284.474 665.263C337.305 644.478 380.559 627.464 433.391 606.686C465.806 592.418 487.429 563.139 486.197 533.439C484.13 512.247 482.057 491.06 479.987 469.871C476.283 444.222 443.538 433.791 410.431 446.324L267.506 502.547ZM338.221 73.5048C490.522 13.5931 655.961 20.0382 795.589 78.7491L681.72 123.54C615.919 107.693 545.329 104.503 473.964 116.536C215.981 160.043 45.5916 385.693 93.3844 620.536C103.299 669.256 121.848 714.525 147.287 755.313L162.592 901.101C114.645 857.126 74.745 804.416 46.115 744.101C-76.6467 485.494 54.1338 185.256 338.221 73.5048ZM435.458 959.062C502.333 975.722 574.283 979.25 647.036 966.979C905.015 923.47 1075.41 697.827 1027.62 462.981C1018.66 419.004 1002.69 377.817 980.953 340.21L1018.14 336.134L1007.02 233.439C1033.67 265.473 1056.59 300.88 1074.89 339.419C1197.65 598.029 1066.86 898.262 782.779 1010.01C629.401 1070.35 462.71 1063.37 322.458 1003.51L435.458 959.062ZM325.142 533.58L331.35 593.12C357.775 582.721 405.951 563.774 432.372 553.378C432.041 532.894 429.887 513.548 427.894 493.162L325.142 533.58ZM533.765 572.737C545.312 534.613 536.017 464.62 519.982 427.179C500.351 380.628 450.588 371.38 403.199 390.028C338.832 415.345 274.467 440.665 210.101 465.986C223.405 592.718 236.709 719.456 250.016 846.189C267.072 839.328 284.329 832.846 301.705 826.792C299.488 802.681 297.267 778.576 295.05 754.464C293.075 732.991 305.806 713.642 327.535 705.093C366.942 689.591 406.386 674.159 445.766 658.586C490.995 640.698 516.143 614.159 533.765 572.737ZM658.456 618.456C686.065 651.317 729.987 660.768 781.317 640.577C809.193 629.611 837.07 618.644 864.946 607.681C875.923 603.359 886.228 597.196 895.385 590.233C911.704 577.812 940.07 547.334 939.492 526.32C939.084 521.94 938.679 517.564 938.277 513.184C880.005 536.687 822.838 563.104 763.918 585.027C747.498 591.142 730.453 589.908 715.296 581.522C700.135 573.136 691.093 559.927 689.493 543.844C685.015 498.802 680.528 453.759 676.047 408.72C673.913 387.272 686.484 367.853 708.131 359.164C743.919 344.8 778.697 329.464 813.93 314.101C847.854 299.317 881.818 286.105 916.458 273.639C914.358 254.263 912.261 234.881 910.164 215.504C856.049 237.507 801.944 259.533 747.626 281.109C691.61 303.363 652.618 333.339 633.885 380.621C621.551 411.75 624.822 424.949 627.557 456.601L635.597 549.538C638.146 578.992 637.322 593.305 658.456 618.456Z" fill="white"/>
</g>
<defs>
<clipPath id="clip0_62_4">
<rect width="1121" height="1059" fill="white"/>
</clipPath>
</defs>
</svg>
